<?xml version="1.0" standalone="no"?><!DOCTYPE svg PUBLIC "-//W3C//DTD SVG 1.1//EN" "http://www.w3.org/Graphics/SVG/1.1/DTD/svg11.dtd"><svg t="1573913084719" class="icon" viewBox="0 0 1024 1024" version="1.1" xmlns="http://www.w3.org/2000/svg" p-id="2436" width="32" height="32" xmlns:xlink="http://www.w3.org/1999/xlink"><defs><style type="text/css"></style></defs><path d="M510.944 960c-247.04 0-448-200.96-448-448s200.992-448 448-448 448 200.96 448 448-200.96 448-448 448z m0-832c-211.744 0-384 172.256-384 384s172.256 384 384 384 384-172.256 384-384-172.256-384-384-384z" fill="#2c2c2c" p-id="2437"></path><path d="M512 773.344c-89.184 0-171.904-40.32-226.912-110.624-10.88-13.92-8.448-34.016 5.472-44.896 13.888-10.912 34.016-8.48 44.928 5.472 42.784 54.688 107.136 86.048 176.512 86.048 70.112 0 134.88-31.904 177.664-87.552 10.784-14.016 30.848-16.672 44.864-5.888 14.016 10.784 16.672 30.88 5.888 44.864C685.408 732.32 602.144 773.344 512 773.344zM368 515.2c-26.528 0-48-21.472-48-48v-64c0-26.528 21.472-48 48-48s48 21.472 48 48v64c0 26.496-21.504 48-48 48zM656 515.2c-26.496 0-48-21.472-48-48v-64c0-26.528 21.504-48 48-48s48 21.472 48 48v64c0 26.496-21.504 48-48 48z" fill="#2c2c2c" p-id="2438"></path></svg>