<svg viewBox="0 0 1024 1024" width="16" height="16" version="1.1" xmlns="http://www.w3.org/2000/svg">
  <path d="M510.944 960c-247.04 0-448-200.96-448-448s200.992-448 448-448 448 200.96 448 448-200.96 448-448 448z m0-832c-211.744 0-384 172.256-384 384s172.256 384 384 384 384-172.256 384-384-172.256-384-384-384zM512 773.344a286.4 286.4 0 0 1-226.912-110.624 32 32 0 1 1 50.4-39.424A222.784 222.784 0 0 0 512 709.344a222.56 222.56 0 0 0 177.664-87.552 32 32 0 1 1 50.752 38.976A286.112 286.112 0 0 1 512 773.344zM368 515.2a48 48 0 0 1-48-48v-64a48 48 0 1 1 96 0v64a48 48 0 0 1-48 48z m288 0a48 48 0 0 1-48-48v-64a48 48 0 1 1 96 0v64a48 48 0 0 1-48 48z" fill="#2c2c2c"></path>
</svg>